# xmcd
#
# Track frame offsets: 
#        150
#        14436
#        26955
#        39399
#        55197
#        67903
#        79631
#        89998
#        104323
#        116747
#        132140
#        149873
#        163987
#        176987
#        189669
#        200776
#        212617
#        226826
#        237679
#        247145
#        260341
#        272373
#        286408
#        299007
#
# Disc length: 4159 seconds
#
# Revision: 2
# Processed by: cddbd v1.5.2PL0 Copyright (c) Steve Scherf et al.
# Submitted via: ExactAudioCopy v0.99pb5
#
DISCID=82103d18
DTITLE=Freddie Hughes - Send My Baby Back
DYEAR=2012
DGENRE=R&B
TTITLE0=Send My Baby Back
TTITLE1=Tonight I'm Gonna See My Baby
TTITLE2=We Gotta Keep On
TTITLE3=He's No Good
TTITLE4=Natural Man
TTITLE5=I Gotta Keepp My Bluff In
TTITLE6=Every Night I See Your Lovely Face
TTITLE7=Where's My Baby
TTITLE8=You're My Everything
TTITLE9=What Am I Gonna Do Without Your Sweet Lovin'
TTITLE10=Love Can't Be Understood
TTITLE11=My Baby Came Back
TTITLE12=Maybe They're Right
TTITLE13=Love's Philosophy
TTITLE14=I Was A Fool
TTITLE15=We Got To Keep On
TTITLE16=Let Our Love Go On
TTITLE17=Every Night I See Your Face
TTITLE18=She's Coming Back
TTITLE19=Station L-O-V-E
TTITLE20=Love's Philosophy (Part 2)
TTITLE21=Love's Philosophy (Part 1)
TTITLE22=Where's My Baby
TTITLE23=Do The Philly
EXTD=
EXTT0=
EXTT1=
EXTT2=
EXTT3=
EXTT4=
EXTT5=
EXTT6=
EXTT7=
EXTT8=
EXTT9=
EXTT10=
EXTT11=
EXTT12=
EXTT13=
EXTT14=
EXTT15=
EXTT16=
EXTT17=
EXTT18=
EXTT19=
EXTT20=
EXTT21=
EXTT22=
EXTT23=
PLAYORDER=
